<?xml version="1.0" encoding="UTF-8" standalone="no"?>
<svg xmlns="http://www.w3.org/2000/svg" version="1.2" baseProfile="tiny" viewBox="0.00 0.00 517.00 497.00">
<g stroke-width="2.00" fill="none" stroke-linecap="butt">
<path stroke="#e1e3e9" vector-effect="non-scaling-stroke" d="
  M 457.7392 98.3437
  A 14.57 14.57 0.0 0 0 453.4903 78.1814
  L 367.3394 22.0203
  A 14.57 14.57 0.0 0 0 347.1771 26.2691
  L 293.5608 108.5163
  A 14.57 14.57 0.0 0 0 297.8097 128.6786
  L 383.9606 184.8397
  A 14.57 14.57 0.0 0 0 404.1229 180.5909
  L 457.7392 98.3437"
/>
<path stroke="#cccfd8" vector-effect="non-scaling-stroke" d="
  M 223.11 126.33
  C 239.28 120.33 250.31 111.19 246.80 92.30
  Q 243.60 75.08 237.53 63.00
  Q 233.70 55.37 231.73 53.22
  Q 222.00 42.64 208.29 45.31
  Q 185.60 49.73 160.06 60.48
  Q 151.93 63.91 149.31 66.34
  Q 137.66 77.18 141.37 93.74
  Q 145.56 112.40 153.28 126.96
  Q 159.36 138.42 172.09 139.44
  C 177.98 139.91 185.24 138.13 191.34 136.48
  Q 207.46 132.14 223.11 126.33"
/>
<path stroke="#cccfd8" vector-effect="non-scaling-stroke" d="
  M 169.38 157.88
  Q 150.62 158.14 131.21 158.15
  Q 119.38 158.15 115.45 159.65
  Q 107.17 162.82 103.62 172.47"
/>
<path stroke="#edeef1" vector-effect="non-scaling-stroke" d="
  M 103.62 172.47
  L 102.63 174.38
  Q 102.39 174.85 101.87 174.81
  C 87.07 173.88 86.28 193.61 102.19 192.59
  Q 102.69 192.56 102.72 193.06
  L 102.88 195.28"
/>
<path stroke="#cccfd8" vector-effect="non-scaling-stroke" d="
  M 102.88 195.28
  L 102.84 217.53"
/>
<path stroke="#e1e3e9" vector-effect="non-scaling-stroke" d="
  M 102.84 217.53
  C 102.94 219.93 102.13 222.02 102.17 224.17
  Q 102.28 229.64 102.07 235.10
  Q 101.95 238.22 100.75 241.50
  C 87.69 277.36 86.70 319.43 100.95 355.58
  Q 102.03 358.34 102.15 361.10
  Q 102.47 369.03 102.74 376.99"
/>
<path stroke="#cccfd8" vector-effect="non-scaling-stroke" d="
  M 102.74 376.99
  C 101.84 400.40 112.51 418.36 135.47 424.98
  Q 139.03 426.00 151.82 425.87"
/>
<path stroke="#e1e3e9" vector-effect="non-scaling-stroke" d="
  M 151.82 425.87
  Q 155.39 429.49 162.51 434.28
  Q 201.30 460.37 246.76 462.63
  C 291.35 464.86 333.96 449.61 366.57 419.20
  Q 402.57 385.62 414.44 336.93"
/>
<path stroke="#cccfd8" vector-effect="non-scaling-stroke" d="
  M 414.44 336.93
  Q 421.23 327.36 428.20 317.85
  C 432.19 312.40 434.19 308.73 431.69 302.51
  Q 428.43 294.42 419.12 294.07"
/>
<path stroke="#e1e3e9" vector-effect="non-scaling-stroke" d="
  M 419.12 294.07
  Q 416.04 224.21 366.69 178.06
  C 312.75 127.62 232.99 119.73 169.38 157.88"
/>
<path stroke="#b9bece" vector-effect="non-scaling-stroke" d="
  M 419.12 294.07
  L 411.54 294.16"
/>
<path stroke="#dbdde7" vector-effect="non-scaling-stroke" d="
  M 411.54 294.16
  L 410.12 275.45
  A 0.50 0.50 0.0 0 0 409.17 275.26
  L 400.01 294.09"
/>
<path stroke="#b9bece" vector-effect="non-scaling-stroke" d="
  M 400.01 294.09
  L 392.26 294.07"
/>
<path stroke="#e1e3e9" vector-effect="non-scaling-stroke" d="
  M 392.26 294.07
  Q 400.62 275.29 404.13 269.20
  C 407.13 264.02 405.75 258.02 399.12 258.02
  Q 304.56 258.11 210.00 257.94
  C 201.76 257.92 197.23 258.98 194.37 266.79
  Q 175.97 317.03 157.32 368.07"
/>
<path stroke="#b9bece" vector-effect="non-scaling-stroke" d="
  M 157.32 368.07
  L 142.75 385.45"
/>
<path stroke="#e1e3e9" vector-effect="non-scaling-stroke" d="
  M 142.75 385.45
  Q 144.16 382.62 144.57 381.48
  C 156.18 349.64 168.14 317.85 179.14 285.79
  Q 185.33 267.73 188.49 261.00
  Q 191.55 254.47 198.13 252.03
  Q 201.72 250.69 210.53 250.70
  Q 297.02 250.79 383.87 250.71
  Q 384.81 250.71 384.91 249.77
  Q 386.27 236.19 387.72 221.99
  C 388.23 217.00 384.49 215.17 379.94 215.16
  Q 273.75 214.96 167.56 215.11
  C 159.88 215.12 154.30 215.57 153.55 224.25
  Q 146.47 306.26 139.21 388.25
  Q 139.18 388.62 140.04 388.54"
/>
<path stroke="#b9bece" vector-effect="non-scaling-stroke" d="
  M 140.04 388.54
  L 123.28 407.84
  Q 121.71 409.65 120.09 407.89
  C 112.62 399.77 110.27 391.78 110.26 380.30
  Q 110.22 280.15 110.27 180.00
  Q 110.27 170.32 117.58 166.80
  Q 120.34 165.47 125.60 165.48
  Q 152.54 165.55 179.51 165.67
  Q 185.77 165.70 190.02 170.46
  Q 194.41 175.39 207.81 189.47
  Q 213.45 195.41 223.25 195.40
  Q 293.12 195.36 362.99 195.32
  Q 367.54 195.32 369.33 196.33
  C 373.01 198.39 373.13 202.55 372.39 206.47
  Q 372.14 207.77 373.46 207.76
  L 378.20 207.75
  Q 379.44 207.75 379.74 206.55
  C 382.12 196.73 375.07 187.45 364.71 187.91"
/>
<path stroke="#dbdde7" vector-effect="non-scaling-stroke" d="
  M 364.71 187.91
  Q 365.04 187.71 365.12 187.36
  Q 365.24 186.85 364.87 186.49
  C 316.83 140.01 249.68 129.06 188.73 155.66
  Q 185.90 156.90 184.73 158.37"
/>
<path stroke="#b9bece" vector-effect="non-scaling-stroke" d="
  M 184.73 158.37
  L 169.38 157.88"
/>
<path stroke="#cccfd8" vector-effect="non-scaling-stroke" d="
  M 140.04 388.54
  L 142.75 385.45"
/>
<path stroke="#cccfd8" vector-effect="non-scaling-stroke" d="
  M 157.32 368.07
  L 197.20 321.78
  A 1.23 1.20 -71.6 0 1 198.03 321.35
  Q 201.39 321.04 204.75 321.06
  Q 261.22 321.35 317.70 321.21
  C 323.28 321.19 327.98 320.62 331.96 317.47
  Q 343.16 308.63 354.73 300.27
  C 359.54 296.79 365.38 294.10 370.75 294.20
  Q 382.20 294.39 392.26 294.07"
/>
<path stroke="#c6c9d6" vector-effect="non-scaling-stroke" d="
  M 400.01 294.09
  L 411.54 294.16"
/>
<path stroke="#b9bece" vector-effect="non-scaling-stroke" d="
  M 414.44 336.93
  L 399.29 356.40"
/>
<path stroke="#c6c9d6" vector-effect="non-scaling-stroke" d="
  M 399.29 356.40
  Q 378.62 384.61 357.64 412.43
  Q 351.02 421.20 341.79 424.32
  Q 337.63 425.73 329.57 425.72
  Q 318.16 425.70 307.01 425.57
  Q 306.18 425.56 305.72 426.24
  Q 290.94 448.06 265.22 452.56
  C 241.22 456.75 217.59 446.53 204.15 426.33
  Q 203.67 425.62 202.25 425.62
  Q 183.26 425.60 164.31 425.56"
/>
<path stroke="#b9bece" vector-effect="non-scaling-stroke" d="
  M 164.31 425.56
  L 151.82 425.87"
/>
<path stroke="#b9bece" vector-effect="non-scaling-stroke" d="
  M 102.74 376.99
  C 103.54 368.01 102.67 357.04 102.72 350.33
  Q 102.81 335.94 102.89 321.54"
/>
<path stroke="#c6c9d6" vector-effect="non-scaling-stroke" d="
  M 102.89 321.54
  L 102.86 264.57"
/>
<path stroke="#b9bece" vector-effect="non-scaling-stroke" d="
  M 102.86 264.57
  L 102.84 217.53"
/>
<path stroke="#c6c9d6" vector-effect="non-scaling-stroke" d="
  M 102.88 195.28
  C 102.87 187.75 102.11 179.86 103.62 172.47"
/>
<path stroke="#c6c9d6" vector-effect="non-scaling-stroke" d="
  M 364.71 187.91
  Q 293.35 187.74 221.98 187.75
  C 219.27 187.75 215.22 186.83 213.63 185.10
  Q 203.17 173.70 192.59 162.43
  Q 191.17 160.92 184.73 158.37"
/>
<path stroke="#dbdde7" vector-effect="non-scaling-stroke" d="
  M 102.86 264.57
  Q 102.47 263.90 102.08 263.64
  Q 101.51 263.24 101.39 263.92
  Q 95.15 297.81 101.27 331.74
  Q 101.43 332.64 102.22 332.26
  A 0.64 0.64 0.0 0 0 102.58 331.70
  L 102.89 321.54"
/>
<path stroke="#dbdde7" vector-effect="non-scaling-stroke" d="
  M 164.31 425.56
  L 164.00 426.02
  Q 163.71 426.44 164.14 426.73
  Q 191.50 445.26 220.52 451.73
  C 258.54 460.21 297.08 454.17 331.53 435.55
  Q 340.63 430.62 345.13 427.35
  Q 381.24 401.11 399.22 360.31
  Q 399.71 359.21 399.89 358.42
  Q 400.39 356.19 399.29 356.40"
/>
<path stroke="#edeef1" vector-effect="non-scaling-stroke" d="
  M 444.91 224.37
  A 12.96 12.96 0.0 0 0 431.95 211.41
  A 12.96 12.96 0.0 0 0 418.99 224.37
  A 12.96 12.96 0.0 0 0 431.95 237.33
  A 12.96 12.96 0.0 0 0 444.91 224.37"
/>
<path stroke="#edeef1" vector-effect="non-scaling-stroke" d="
  M 61.73 347.12
  A 16.43 16.43 0.0 0 0 45.30 330.69
  A 16.43 16.43 0.0 0 0 28.87 347.12
  A 16.43 16.43 0.0 0 0 45.30 363.55
  A 16.43 16.43 0.0 0 0 61.73 347.12"
/>
<path stroke="#dbdde7" vector-effect="non-scaling-stroke" d="
  M 451.4686 93.9633
  A 7.00 7.00 0.0 0 0 449.4104 84.2801
  L 363.1615 28.2694
  A 7.00 7.00 0.0 0 0 353.4783 30.3277
  L 299.8314 112.9367
  A 7.00 7.00 0.0 0 0 301.8896 122.6199
  L 388.1385 178.6306
  A 7.00 7.00 0.0 0 0 397.8217 176.5723
  L 451.4686 93.9633"
/>
<path stroke="#edeef1" vector-effect="non-scaling-stroke" d="
  M 440.1584 96.5745
  A 4.53 4.53 0.0 0 0 438.8264 90.3082
  L 362.8597 40.9747
  A 4.53 4.53 0.0 0 0 356.5933 42.3067
  L 312.1616 110.7255
  A 4.53 4.53 0.0 0 0 313.4936 116.9918
  L 389.4603 166.3253
  A 4.53 4.53 0.0 0 0 395.7267 164.9933
  L 440.1584 96.5745"
/>
<path stroke="#cccfd8" vector-effect="non-scaling-stroke" d="
  M 376.04 78.95
  A 6.27 6.27 0.0 0 0 369.77 72.68
  A 6.27 6.27 0.0 0 0 363.50 78.95
  A 6.27 6.27 0.0 0 0 369.77 85.22
  A 6.27 6.27 0.0 0 0 376.04 78.95"
/>
<path stroke="#e1e3e9" vector-effect="non-scaling-stroke" d="
  M 352.99 105.95
  L 391.96 131.16
  A 0.38 0.38 0.0 0 0 392.55 130.78
  L 387.47 96.98
  A 0.88 0.87 77.2 0 0 386.35 96.27
  Q 377.91 98.93 368.99 101.18
  Q 367.89 101.46 367.31 100.82"
/>
<path stroke="#cccfd8" vector-effect="non-scaling-stroke" d="
  M 367.31 100.82
  L 366.17 92.73
  Q 366.08 92.14 365.51 92.29
  L 342.77 98.54
  A 0.37 0.37 0.0 0 0 342.66 99.21
  L 352.99 105.95"
/>
<path stroke="#b9bece" vector-effect="non-scaling-stroke" d="
  M 367.31 100.82
  Q 367.12 101.92 366.00 102.18
  Q 358.27 103.97 352.99 105.95"
/>
<path stroke="#b9bece" vector-effect="non-scaling-stroke" d="
  M 177.16 62.11
  C 171.14 64.36 165.28 66.28 158.81 69.55
  C 146.92 75.55 146.86 84.27 149.79 96.51
  Q 152.67 108.54 157.91 119.77
  C 163.46 131.66 170.47 133.44 183.36 130.65
  Q 200.94 126.85 217.66 120.20
  C 229.02 115.67 242.33 110.83 239.66 95.27
  Q 236.67 77.94 228.65 62.32
  Q 222.43 50.21 208.44 53.18
  Q 191.44 56.78 177.16 62.11"
/>
<path stroke="#b9bece" vector-effect="non-scaling-stroke" d="
  M 210.00 81.34
  Q 204.08 79.47 184.11 75.39
  Q 180.04 74.55 178.34 75.05
  C 175.03 76.01 173.77 80.15 174.82 83.50
  Q 177.74 92.72 183.24 108.81
  C 185.60 115.71 190.01 118.80 195.82 112.37
  Q 204.17 103.12 211.87 93.33
  Q 214.55 89.92 214.72 87.41
  Q 215.03 82.94 210.00 81.34"
/>
<path stroke="#cccfd8" vector-effect="non-scaling-stroke" d="
  M 183.47 82.77
  A 0.67 0.67 0.0 0 0 182.69 83.63
  L 190.15 106.08
  A 0.67 0.67 0.0 0 0 191.30 106.30
  L 205.96 88.96
  A 0.67 0.67 0.0 0 0 205.60 87.87
  L 183.47 82.77"
/>
<path stroke="#dbdde7" vector-effect="non-scaling-stroke" d="
  M 394.96 227.88
  A 0.31 0.31 0.0 0 0 394.37 227.99
  L 392.40 250.21
  Q 392.36 250.66 392.81 250.63
  Q 398.34 250.18 403.73 251.38
  A 0.48 0.48 0.0 0 0 404.29 250.76
  Q 400.39 239.01 394.96 227.88"
/>
<path stroke="#b9bece" vector-effect="non-scaling-stroke" d="
  M 403.92 337.19
  C 410.59 327.06 419.27 317.33 423.48 311.27
  Q 426.84 306.41 422.94 302.77
  C 421.73 301.64 420.07 301.69 418.50 301.70
  Q 397.39 301.78 376.25 301.71
  C 369.16 301.69 364.31 302.54 359.14 306.65
  Q 347.88 315.60 338.79 322.27
  C 332.33 327.01 327.64 328.72 320.00 328.73
  Q 270.25 328.84 220.51 328.57
  C 214.45 328.53 207.86 328.87 201.57 328.93
  A 1.08 1.06 19.5 0 0 200.78 329.30
  L 128.75 413.30
  A 0.88 0.88 0.0 0 0 129.06 414.68
  C 133.54 416.68 137.91 417.76 143.12 417.86
  Q 171.17 418.40 199.15 417.97
  A 0.33 0.32 78.1 0 0 199.44 417.52
  Q 188.30 389.97 200.90 365.35
  C 216.67 334.55 254.50 323.47 284.55 340.43
  C 311.80 355.80 322.81 388.18 310.24 416.86
  A 0.95 0.95 0.0 0 0 311.12 418.19
  Q 321.73 418.08 331.76 417.96
  C 343.21 417.83 347.07 413.85 354.08 404.47
  Q 376.66 374.24 399.19 343.97
  Q 401.50 340.87 403.92 337.19"
/>
<path stroke="#cccfd8" vector-effect="non-scaling-stroke" d="
  M 307.89 393.03
  A 53.07 53.07 0.0 0 0 254.82 339.96
  A 53.07 53.07 0.0 0 0 201.75 393.03
  A 53.07 53.07 0.0 0 0 254.82 446.10
  A 53.07 53.07 0.0 0 0 307.89 393.03"
/>
<path stroke="#cccfd8" vector-effect="non-scaling-stroke" d="
  M 266.96 380.44
  C 266.97 378.07 267.08 375.58 266.57 373.51
  C 264.31 364.51 254.08 361.39 246.90 367.44
  C 242.38 371.25 243.09 375.41 242.97 380.45
  A 0.65 0.65 0.0 0 1 242.31 381.08
  C 239.27 381.02 236.09 380.92 233.37 382.00
  C 223.81 385.81 223.88 399.47 232.72 403.85
  C 235.66 405.30 239.03 405.09 242.36 405.01
  A 0.60 0.60 0.0 0 1 242.98 405.62
  Q 242.97 407.45 242.97 409.23
  C 242.97 423.97 261.94 426.65 266.58 413.01
  C 267.29 410.91 266.88 408.21 266.97 405.86
  Q 266.99 405.33 267.51 405.30
  C 272.93 404.90 276.96 405.23 280.80 400.95
  C 286.82 394.23 283.50 384.51 275.06 381.63
  C 272.77 380.85 270.06 381.03 267.53 381.01
  A 0.57 0.57 0.0 0 1 266.96 380.44"
/>
<path stroke="#cccfd8" vector-effect="non-scaling-stroke" d="
  M 249.75 388.51
  L 237.79 388.48
  A 4.26 4.26 0.0 0 0 233.53 392.96
  L 233.59 394.18
  A 3.63 3.62 88.5 0 0 237.22 397.63
  L 249.70 397.62
  A 0.63 0.63 0.0 0 1 250.33 398.25
  L 250.32 410.00
  Q 250.32 414.43 254.75 414.28
  L 256.05 414.24
  A 3.55 3.55 0.0 0 0 259.49 410.69
  L 259.50 398.18
  Q 259.50 397.61 260.07 397.61
  L 272.02 397.63
  A 4.29 4.29 0.0 0 0 276.31 393.23
  L 276.28 391.97
  A 3.56 3.56 0.0 0 0 272.72 388.50
  L 259.99 388.49
  A 0.50 0.50 0.0 0 1 259.49 387.99
  L 259.49 375.27
  A 3.51 3.50 1.4 0 0 256.15 371.77
  L 254.88 371.71
  Q 250.29 371.50 250.31 376.09
  L 250.34 387.91
  A 0.60 0.59 90.0 0 1 249.75 388.51"
/>
</g>
<path fill="#f3f3f3" d="
  M 0.00 0.00
  L 517.00 0.00
  L 517.00 497.00
  L 0.00 497.00
  L 0.00 0.00
  Z
  M 457.7392 98.3437
  A 14.57 14.57 0.0 0 0 453.4903 78.1814
  L 367.3394 22.0203
  A 14.57 14.57 0.0 0 0 347.1771 26.2691
  L 293.5608 108.5163
  A 14.57 14.57 0.0 0 0 297.8097 128.6786
  L 383.9606 184.8397
  A 14.57 14.57 0.0 0 0 404.1229 180.5909
  L 457.7392 98.3437
  Z
  M 223.11 126.33
  C 239.28 120.33 250.31 111.19 246.80 92.30
  Q 243.60 75.08 237.53 63.00
  Q 233.70 55.37 231.73 53.22
  Q 222.00 42.64 208.29 45.31
  Q 185.60 49.73 160.06 60.48
  Q 151.93 63.91 149.31 66.34
  Q 137.66 77.18 141.37 93.74
  Q 145.56 112.40 153.28 126.96
  Q 159.36 138.42 172.09 139.44
  C 177.98 139.91 185.24 138.13 191.34 136.48
  Q 207.46 132.14 223.11 126.33
  Z
  M 169.38 157.88
  Q 150.62 158.14 131.21 158.15
  Q 119.38 158.15 115.45 159.65
  Q 107.17 162.82 103.62 172.47
  L 102.63 174.38
  Q 102.39 174.85 101.87 174.81
  C 87.07 173.88 86.28 193.61 102.19 192.59
  Q 102.69 192.56 102.72 193.06
  L 102.88 195.28
  L 102.84 217.53
  C 102.94 219.93 102.13 222.02 102.17 224.17
  Q 102.28 229.64 102.07 235.10
  Q 101.95 238.22 100.75 241.50
  C 87.69 277.36 86.70 319.43 100.95 355.58
  Q 102.03 358.34 102.15 361.10
  Q 102.47 369.03 102.74 376.99
  C 101.84 400.40 112.51 418.36 135.47 424.98
  Q 139.03 426.00 151.82 425.87
  Q 155.39 429.49 162.51 434.28
  Q 201.30 460.37 246.76 462.63
  C 291.35 464.86 333.96 449.61 366.57 419.20
  Q 402.57 385.62 414.44 336.93
  Q 421.23 327.36 428.20 317.85
  C 432.19 312.40 434.19 308.73 431.69 302.51
  Q 428.43 294.42 419.12 294.07
  Q 416.04 224.21 366.69 178.06
  C 312.75 127.62 232.99 119.73 169.38 157.88
  Z
  M 444.91 224.37
  A 12.96 12.96 0.0 0 0 431.95 211.41
  A 12.96 12.96 0.0 0 0 418.99 224.37
  A 12.96 12.96 0.0 0 0 431.95 237.33
  A 12.96 12.96 0.0 0 0 444.91 224.37
  Z
  M 61.73 347.12
  A 16.43 16.43 0.0 0 0 45.30 330.69
  A 16.43 16.43 0.0 0 0 28.87 347.12
  A 16.43 16.43 0.0 0 0 45.30 363.55
  A 16.43 16.43 0.0 0 0 61.73 347.12
  Z"
/>
<path fill="#ced2df" d="
  M 404.1229 180.5909
  A 14.57 14.57 0.0 0 1 383.9606 184.8397
  L 297.8097 128.6786
  A 14.57 14.57 0.0 0 1 293.5608 108.5163
  L 347.1771 26.2691
  A 14.57 14.57 0.0 0 1 367.3394 22.0203
  L 453.4903 78.1814
  A 14.57 14.57 0.0 0 1 457.7392 98.3437
  L 404.1229 180.5909
  Z
  M 451.4686 93.9633
  A 7.00 7.00 0.0 0 0 449.4104 84.2801
  L 363.1615 28.2694
  A 7.00 7.00 0.0 0 0 353.4783 30.3277
  L 299.8314 112.9367
  A 7.00 7.00 0.0 0 0 301.8896 122.6199
  L 388.1385 178.6306
  A 7.00 7.00 0.0 0 0 397.8217 176.5723
  L 451.4686 93.9633
  Z"
/>
<path fill="#e7e8ef" d="
  M 397.8217 176.5723
  A 7.00 7.00 0.0 0 1 388.1385 178.6306
  L 301.8896 122.6199
  A 7.00 7.00 0.0 0 1 299.8314 112.9367
  L 353.4783 30.3277
  A 7.00 7.00 0.0 0 1 363.1615 28.2694
  L 449.4104 84.2801
  A 7.00 7.00 0.0 0 1 451.4686 93.9633
  L 397.8217 176.5723
  Z
  M 440.1584 96.5745
  A 4.53 4.53 0.0 0 0 438.8264 90.3082
  L 362.8597 40.9747
  A 4.53 4.53 0.0 0 0 356.5933 42.3067
  L 312.1616 110.7255
  A 4.53 4.53 0.0 0 0 313.4936 116.9918
  L 389.4603 166.3253
  A 4.53 4.53 0.0 0 0 395.7267 164.9933
  L 440.1584 96.5745
  Z"
/>
<path fill="#f3f3f3" d="
  M 395.7267 164.9933
  A 4.53 4.53 0.0 0 1 389.4603 166.3253
  L 313.4936 116.9918
  A 4.53 4.53 0.0 0 1 312.1616 110.7255
  L 356.5933 42.3067
  A 4.53 4.53 0.0 0 1 362.8597 40.9747
  L 438.8264 90.3082
  A 4.53 4.53 0.0 0 1 440.1584 96.5745
  L 395.7267 164.9933
  Z
  M 376.04 78.95
  A 6.27 6.27 0.0 0 0 369.77 72.68
  A 6.27 6.27 0.0 0 0 363.50 78.95
  A 6.27 6.27 0.0 0 0 369.77 85.22
  A 6.27 6.27 0.0 0 0 376.04 78.95
  Z
  M 352.99 105.95
  L 391.96 131.16
  A 0.38 0.38 0.0 0 0 392.55 130.78
  L 387.47 96.98
  A 0.88 0.87 77.2 0 0 386.35 96.27
  Q 377.91 98.93 368.99 101.18
  Q 367.89 101.46 367.31 100.82
  L 366.17 92.73
  Q 366.08 92.14 365.51 92.29
  L 342.77 98.54
  A 0.37 0.37 0.0 0 0 342.66 99.21
  L 352.99 105.95
  Z"
/>
<path fill="#a4aabd" d="
  M 246.80 92.30
  C 250.31 111.19 239.28 120.33 223.11 126.33
  Q 207.46 132.14 191.34 136.48
  C 185.24 138.13 177.98 139.91 172.09 139.44
  Q 159.36 138.42 153.28 126.96
  Q 145.56 112.40 141.37 93.74
  Q 137.66 77.18 149.31 66.34
  Q 151.93 63.91 160.06 60.48
  Q 185.60 49.73 208.29 45.31
  Q 222.00 42.64 231.73 53.22
  Q 233.70 55.37 237.53 63.00
  Q 243.60 75.08 246.80 92.30
  Z
  M 177.16 62.11
  C 171.14 64.36 165.28 66.28 158.81 69.55
  C 146.92 75.55 146.86 84.27 149.79 96.51
  Q 152.67 108.54 157.91 119.77
  C 163.46 131.66 170.47 133.44 183.36 130.65
  Q 200.94 126.85 217.66 120.20
  C 229.02 115.67 242.33 110.83 239.66 95.27
  Q 236.67 77.94 228.65 62.32
  Q 222.43 50.21 208.44 53.18
  Q 191.44 56.78 177.16 62.11
  Z"
/>
<path fill="#ced2df" d="
  M 177.16 62.11
  Q 191.44 56.78 208.44 53.18
  Q 222.43 50.21 228.65 62.32
  Q 236.67 77.94 239.66 95.27
  C 242.33 110.83 229.02 115.67 217.66 120.20
  Q 200.94 126.85 183.36 130.65
  C 170.47 133.44 163.46 131.66 157.91 119.77
  Q 152.67 108.54 149.79 96.51
  C 146.86 84.27 146.92 75.55 158.81 69.55
  C 165.28 66.28 171.14 64.36 177.16 62.11
  Z
  M 210.00 81.34
  Q 204.08 79.47 184.11 75.39
  Q 180.04 74.55 178.34 75.05
  C 175.03 76.01 173.77 80.15 174.82 83.50
  Q 177.74 92.72 183.24 108.81
  C 185.60 115.71 190.01 118.80 195.82 112.37
  Q 204.17 103.12 211.87 93.33
  Q 214.55 89.92 214.72 87.41
  Q 215.03 82.94 210.00 81.34
  Z"
/>
<circle fill="#a4aabd" cx="369.77" cy="78.95" r="6.27"/>
<path fill="#a4aabd" d="
  M 210.00 81.34
  Q 215.03 82.94 214.72 87.41
  Q 214.55 89.92 211.87 93.33
  Q 204.17 103.12 195.82 112.37
  C 190.01 118.80 185.60 115.71 183.24 108.81
  Q 177.74 92.72 174.82 83.50
  C 173.77 80.15 175.03 76.01 178.34 75.05
  Q 180.04 74.55 184.11 75.39
  Q 204.08 79.47 210.00 81.34
  Z
  M 183.47 82.77
  A 0.67 0.67 0.0 0 0 182.69 83.63
  L 190.15 106.08
  A 0.67 0.67 0.0 0 0 191.30 106.30
  L 205.96 88.96
  A 0.67 0.67 0.0 0 0 205.60 87.87
  L 183.47 82.77
  Z"
/>
<path fill="#f3f3f3" d="
  M 183.47 82.77
  L 205.60 87.87
  A 0.67 0.67 0.0 0 1 205.96 88.96
  L 191.30 106.30
  A 0.67 0.67 0.0 0 1 190.15 106.08
  L 182.69 83.63
  A 0.67 0.67 0.0 0 1 183.47 82.77
  Z"
/>
<path fill="#a4aabd" d="
  M 367.31 100.82
  Q 367.12 101.92 366.00 102.18
  Q 358.27 103.97 352.99 105.95
  L 342.66 99.21
  A 0.37 0.37 0.0 0 1 342.77 98.54
  L 365.51 92.29
  Q 366.08 92.14 366.17 92.73
  L 367.31 100.82
  Z"
/>
<path fill="#ced2df" d="
  M 352.99 105.95
  Q 358.27 103.97 366.00 102.18
  Q 367.12 101.92 367.31 100.82
  Q 367.89 101.46 368.99 101.18
  Q 377.91 98.93 386.35 96.27
  A 0.88 0.87 77.2 0 1 387.47 96.98
  L 392.55 130.78
  A 0.38 0.38 0.0 0 1 391.96 131.16
  L 352.99 105.95
  Z"
/>
<path fill="#ced2df" d="
  M 419.12 294.07
  L 411.54 294.16
  L 410.12 275.45
  A 0.50 0.50 0.0 0 0 409.17 275.26
  L 400.01 294.09
  L 392.26 294.07
  Q 400.62 275.29 404.13 269.20
  C 407.13 264.02 405.75 258.02 399.12 258.02
  Q 304.56 258.11 210.00 257.94
  C 201.76 257.92 197.23 258.98 194.37 266.79
  Q 175.97 317.03 157.32 368.07
  L 142.75 385.45
  Q 144.16 382.62 144.57 381.48
  C 156.18 349.64 168.14 317.85 179.14 285.79
  Q 185.33 267.73 188.49 261.00
  Q 191.55 254.47 198.13 252.03
  Q 201.72 250.69 210.53 250.70
  Q 297.02 250.79 383.87 250.71
  Q 384.81 250.71 384.91 249.77
  Q 386.27 236.19 387.72 221.99
  C 388.23 217.00 384.49 215.17 379.94 215.16
  Q 273.75 214.96 167.56 215.11
  C 159.88 215.12 154.30 215.57 153.55 224.25
  Q 146.47 306.26 139.21 388.25
  Q 139.18 388.62 140.04 388.54
  L 123.28 407.84
  Q 121.71 409.65 120.09 407.89
  C 112.62 399.77 110.27 391.78 110.26 380.30
  Q 110.22 280.15 110.27 180.00
  Q 110.27 170.32 117.58 166.80
  Q 120.34 165.47 125.60 165.48
  Q 152.54 165.55 179.51 165.67
  Q 185.77 165.70 190.02 170.46
  Q 194.41 175.39 207.81 189.47
  Q 213.45 195.41 223.25 195.40
  Q 293.12 195.36 362.99 195.32
  Q 367.54 195.32 369.33 196.33
  C 373.01 198.39 373.13 202.55 372.39 206.47
  Q 372.14 207.77 373.46 207.76
  L 378.20 207.75
  Q 379.44 207.75 379.74 206.55
  C 382.12 196.73 375.07 187.45 364.71 187.91
  Q 365.04 187.71 365.12 187.36
  Q 365.24 186.85 364.87 186.49
  C 316.83 140.01 249.68 129.06 188.73 155.66
  Q 185.90 156.90 184.73 158.37
  L 169.38 157.88
  C 232.99 119.73 312.75 127.62 366.69 178.06
  Q 416.04 224.21 419.12 294.07
  Z
  M 394.96 227.88
  A 0.31 0.31 0.0 0 0 394.37 227.99
  L 392.40 250.21
  Q 392.36 250.66 392.81 250.63
  Q 398.34 250.18 403.73 251.38
  A 0.48 0.48 0.0 0 0 404.29 250.76
  Q 400.39 239.01 394.96 227.88
  Z"
/>
<path fill="#e7e8ef" d="
  M 364.71 187.91
  Q 293.35 187.74 221.98 187.75
  C 219.27 187.75 215.22 186.83 213.63 185.10
  Q 203.17 173.70 192.59 162.43
  Q 191.17 160.92 184.73 158.37
  Q 185.90 156.90 188.73 155.66
  C 249.68 129.06 316.83 140.01 364.87 186.49
  Q 365.24 186.85 365.12 187.36
  Q 365.04 187.71 364.71 187.91
  Z"
/>
<path fill="#a4aabd" d="
  M 169.38 157.88
  L 184.73 158.37
  Q 191.17 160.92 192.59 162.43
  Q 203.17 173.70 213.63 185.10
  C 215.22 186.83 219.27 187.75 221.98 187.75
  Q 293.35 187.74 364.71 187.91
  C 375.07 187.45 382.12 196.73 379.74 206.55
  Q 379.44 207.75 378.20 207.75
  L 373.46 207.76
  Q 372.14 207.77 372.39 206.47
  C 373.13 202.55 373.01 198.39 369.33 196.33
  Q 367.54 195.32 362.99 195.32
  Q 293.12 195.36 223.25 195.40
  Q 213.45 195.41 207.81 189.47
  Q 194.41 175.39 190.02 170.46
  Q 185.77 165.70 179.51 165.67
  Q 152.54 165.55 125.60 165.48
  Q 120.34 165.47 117.58 166.80
  Q 110.27 170.32 110.27 180.00
  Q 110.22 280.15 110.26 380.30
  C 110.27 391.78 112.62 399.77 120.09 407.89
  Q 121.71 409.65 123.28 407.84
  L 140.04 388.54
  L 142.75 385.45
  L 157.32 368.07
  L 197.20 321.78
  A 1.23 1.20 -71.6 0 1 198.03 321.35
  Q 201.39 321.04 204.75 321.06
  Q 261.22 321.35 317.70 321.21
  C 323.28 321.19 327.98 320.62 331.96 317.47
  Q 343.16 308.63 354.73 300.27
  C 359.54 296.79 365.38 294.10 370.75 294.20
  Q 382.20 294.39 392.26 294.07
  L 400.01 294.09
  L 411.54 294.16
  L 419.12 294.07
  Q 428.43 294.42 431.69 302.51
  C 434.19 308.73 432.19 312.40 428.20 317.85
  Q 421.23 327.36 414.44 336.93
  L 399.29 356.40
  Q 378.62 384.61 357.64 412.43
  Q 351.02 421.20 341.79 424.32
  Q 337.63 425.73 329.57 425.72
  Q 318.16 425.70 307.01 425.57
  Q 306.18 425.56 305.72 426.24
  Q 290.94 448.06 265.22 452.56
  C 241.22 456.75 217.59 446.53 204.15 426.33
  Q 203.67 425.62 202.25 425.62
  Q 183.26 425.60 164.31 425.56
  L 151.82 425.87
  Q 139.03 426.00 135.47 424.98
  C 112.51 418.36 101.84 400.40 102.74 376.99
  C 103.54 368.01 102.67 357.04 102.72 350.33
  Q 102.81 335.94 102.89 321.54
  L 102.86 264.57
  L 102.84 217.53
  L 102.88 195.28
  C 102.87 187.75 102.11 179.86 103.62 172.47
  Q 107.17 162.82 115.45 159.65
  Q 119.38 158.15 131.21 158.15
  Q 150.62 158.14 169.38 157.88
  Z
  M 403.92 337.19
  C 410.59 327.06 419.27 317.33 423.48 311.27
  Q 426.84 306.41 422.94 302.77
  C 421.73 301.64 420.07 301.69 418.50 301.70
  Q 397.39 301.78 376.25 301.71
  C 369.16 301.69 364.31 302.54 359.14 306.65
  Q 347.88 315.60 338.79 322.27
  C 332.33 327.01 327.64 328.72 320.00 328.73
  Q 270.25 328.84 220.51 328.57
  C 214.45 328.53 207.86 328.87 201.57 328.93
  A 1.08 1.06 19.5 0 0 200.78 329.30
  L 128.75 413.30
  A 0.88 0.88 0.0 0 0 129.06 414.68
  C 133.54 416.68 137.91 417.76 143.12 417.86
  Q 171.17 418.40 199.15 417.97
  A 0.33 0.32 78.1 0 0 199.44 417.52
  Q 188.30 389.97 200.90 365.35
  C 216.67 334.55 254.50 323.47 284.55 340.43
  C 311.80 355.80 322.81 388.18 310.24 416.86
  A 0.95 0.95 0.0 0 0 311.12 418.19
  Q 321.73 418.08 331.76 417.96
  C 343.21 417.83 347.07 413.85 354.08 404.47
  Q 376.66 374.24 399.19 343.97
  Q 401.50 340.87 403.92 337.19
  Z
  M 307.89 393.03
  A 53.07 53.07 0.0 0 0 254.82 339.96
  A 53.07 53.07 0.0 0 0 201.75 393.03
  A 53.07 53.07 0.0 0 0 254.82 446.10
  A 53.07 53.07 0.0 0 0 307.89 393.03
  Z"
/>
<path fill="#e7e8ef" d="
  M 103.62 172.47
  C 102.11 179.86 102.87 187.75 102.88 195.28
  L 102.72 193.06
  Q 102.69 192.56 102.19 192.59
  C 86.28 193.61 87.07 173.88 101.87 174.81
  Q 102.39 174.85 102.63 174.38
  L 103.62 172.47
  Z"
/>
<circle fill="#e7e8ef" cx="431.95" cy="224.37" r="12.96"/>
<path fill="#f3f3f3" d="
  M 142.75 385.45
  L 140.04 388.54
  Q 139.18 388.62 139.21 388.25
  Q 146.47 306.26 153.55 224.25
  C 154.30 215.57 159.88 215.12 167.56 215.11
  Q 273.75 214.96 379.94 215.16
  C 384.49 215.17 388.23 217.00 387.72 221.99
  Q 386.27 236.19 384.91 249.77
  Q 384.81 250.71 383.87 250.71
  Q 297.02 250.79 210.53 250.70
  Q 201.72 250.69 198.13 252.03
  Q 191.55 254.47 188.49 261.00
  Q 185.33 267.73 179.14 285.79
  C 168.14 317.85 156.18 349.64 144.57 381.48
  Q 144.16 382.62 142.75 385.45
  Z"
/>
<path fill="#ced2df" d="
  M 102.84 217.53
  L 102.86 264.57
  Q 102.47 263.90 102.08 263.64
  Q 101.51 263.24 101.39 263.92
  Q 95.15 297.81 101.27 331.74
  Q 101.43 332.64 102.22 332.26
  A 0.64 0.64 0.0 0 0 102.58 331.70
  L 102.89 321.54
  Q 102.81 335.94 102.72 350.33
  C 102.67 357.04 103.54 368.01 102.74 376.99
  Q 102.47 369.03 102.15 361.10
  Q 102.03 358.34 100.95 355.58
  C 86.70 319.43 87.69 277.36 100.75 241.50
  Q 101.95 238.22 102.07 235.10
  Q 102.28 229.64 102.17 224.17
  C 102.13 222.02 102.94 219.93 102.84 217.53
  Z"
/>
<path fill="#e7e8ef" d="
  M 394.96 227.88
  Q 400.39 239.01 404.29 250.76
  A 0.48 0.48 0.0 0 1 403.73 251.38
  Q 398.34 250.18 392.81 250.63
  Q 392.36 250.66 392.40 250.21
  L 394.37 227.99
  A 0.31 0.31 0.0 0 1 394.96 227.88
  Z"
/>
<path fill="#f3f3f3" d="
  M 392.26 294.07
  Q 382.20 294.39 370.75 294.20
  C 365.38 294.10 359.54 296.79 354.73 300.27
  Q 343.16 308.63 331.96 317.47
  C 327.98 320.62 323.28 321.19 317.70 321.21
  Q 261.22 321.35 204.75 321.06
  Q 201.39 321.04 198.03 321.35
  A 1.23 1.20 -71.6 0 0 197.20 321.78
  L 157.32 368.07
  Q 175.97 317.03 194.37 266.79
  C 197.23 258.98 201.76 257.92 210.00 257.94
  Q 304.56 258.11 399.12 258.02
  C 405.75 258.02 407.13 264.02 404.13 269.20
  Q 400.62 275.29 392.26 294.07
  Z"
/>
<path fill="#e7e8ef" d="
  M 102.86 264.57
  L 102.89 321.54
  L 102.58 331.70
  A 0.64 0.64 0.0 0 1 102.22 332.26
  Q 101.43 332.64 101.27 331.74
  Q 95.15 297.81 101.39 263.92
  Q 101.51 263.24 102.08 263.64
  Q 102.47 263.90 102.86 264.57
  Z"
/>
<path fill="#e7e8ef" d="
  M 411.54 294.16
  L 400.01 294.09
  L 409.17 275.26
  A 0.50 0.50 0.0 0 1 410.12 275.45
  L 411.54 294.16
  Z"
/>
<path fill="#ced2df" d="
  M 423.48 311.27
  C 419.27 317.33 410.59 327.06 403.92 337.19
  Q 401.50 340.87 399.19 343.97
  Q 376.66 374.24 354.08 404.47
  C 347.07 413.85 343.21 417.83 331.76 417.96
  Q 321.73 418.08 311.12 418.19
  A 0.95 0.95 0.0 0 1 310.24 416.86
  C 322.81 388.18 311.80 355.80 284.55 340.43
  C 254.50 323.47 216.67 334.55 200.90 365.35
  Q 188.30 389.97 199.44 417.52
  A 0.33 0.32 78.1 0 1 199.15 417.97
  Q 171.17 418.40 143.12 417.86
  C 137.91 417.76 133.54 416.68 129.06 414.68
  A 0.88 0.88 0.0 0 1 128.75 413.30
  L 200.78 329.30
  A 1.08 1.06 19.5 0 1 201.57 328.93
  C 207.86 328.87 214.45 328.53 220.51 328.57
  Q 270.25 328.84 320.00 328.73
  C 327.64 328.72 332.33 327.01 338.79 322.27
  Q 347.88 315.60 359.14 306.65
  C 364.31 302.54 369.16 301.69 376.25 301.71
  Q 397.39 301.78 418.50 301.70
  C 420.07 301.69 421.73 301.64 422.94 302.77
  Q 426.84 306.41 423.48 311.27
  Z"
/>
<circle fill="#e7e8ef" cx="45.30" cy="347.12" r="16.43"/>
<path fill="#ced2df" d="
  M 414.44 336.93
  Q 402.57 385.62 366.57 419.20
  C 333.96 449.61 291.35 464.86 246.76 462.63
  Q 201.30 460.37 162.51 434.28
  Q 155.39 429.49 151.82 425.87
  L 164.31 425.56
  L 164.00 426.02
  Q 163.71 426.44 164.14 426.73
  Q 191.50 445.26 220.52 451.73
  C 258.54 460.21 297.08 454.17 331.53 435.55
  Q 340.63 430.62 345.13 427.35
  Q 381.24 401.11 399.22 360.31
  Q 399.71 359.21 399.89 358.42
  Q 400.39 356.19 399.29 356.40
  L 414.44 336.93
  Z"
/>
<path fill="#f3f3f3" d="
  M 307.89 393.03
  A 53.07 53.07 0.0 0 1 254.82 446.10
  A 53.07 53.07 0.0 0 1 201.75 393.03
  A 53.07 53.07 0.0 0 1 254.82 339.96
  A 53.07 53.07 0.0 0 1 307.89 393.03
  Z
  M 266.96 380.44
  C 266.97 378.07 267.08 375.58 266.57 373.51
  C 264.31 364.51 254.08 361.39 246.90 367.44
  C 242.38 371.25 243.09 375.41 242.97 380.45
  A 0.65 0.65 0.0 0 1 242.31 381.08
  C 239.27 381.02 236.09 380.92 233.37 382.00
  C 223.81 385.81 223.88 399.47 232.72 403.85
  C 235.66 405.30 239.03 405.09 242.36 405.01
  A 0.60 0.60 0.0 0 1 242.98 405.62
  Q 242.97 407.45 242.97 409.23
  C 242.97 423.97 261.94 426.65 266.58 413.01
  C 267.29 410.91 266.88 408.21 266.97 405.86
  Q 266.99 405.33 267.51 405.30
  C 272.93 404.90 276.96 405.23 280.80 400.95
  C 286.82 394.23 283.50 384.51 275.06 381.63
  C 272.77 380.85 270.06 381.03 267.53 381.01
  A 0.57 0.57 0.0 0 1 266.96 380.44
  Z"
/>
<path fill="#e7e8ef" d="
  M 399.29 356.40
  Q 400.39 356.19 399.89 358.42
  Q 399.71 359.21 399.22 360.31
  Q 381.24 401.11 345.13 427.35
  Q 340.63 430.62 331.53 435.55
  C 297.08 454.17 258.54 460.21 220.52 451.73
  Q 191.50 445.26 164.14 426.73
  Q 163.71 426.44 164.00 426.02
  L 164.31 425.56
  Q 183.26 425.60 202.25 425.62
  Q 203.67 425.62 204.15 426.33
  C 217.59 446.53 241.22 456.75 265.22 452.56
  Q 290.94 448.06 305.72 426.24
  Q 306.18 425.56 307.01 425.57
  Q 318.16 425.70 329.57 425.72
  Q 337.63 425.73 341.79 424.32
  Q 351.02 421.20 357.64 412.43
  Q 378.62 384.61 399.29 356.40
  Z"
/>
<path fill="#a4aabd" d="
  M 267.53 381.01
  C 270.06 381.03 272.77 380.85 275.06 381.63
  C 283.50 384.51 286.82 394.23 280.80 400.95
  C 276.96 405.23 272.93 404.90 267.51 405.30
  Q 266.99 405.33 266.97 405.86
  C 266.88 408.21 267.29 410.91 266.58 413.01
  C 261.94 426.65 242.97 423.97 242.97 409.23
  Q 242.97 407.45 242.98 405.62
  A 0.60 0.60 0.0 0 0 242.36 405.01
  C 239.03 405.09 235.66 405.30 232.72 403.85
  C 223.88 399.47 223.81 385.81 233.37 382.00
  C 236.09 380.92 239.27 381.02 242.31 381.08
  A 0.65 0.65 0.0 0 0 242.97 380.45
  C 243.09 375.41 242.38 371.25 246.90 367.44
  C 254.08 361.39 264.31 364.51 266.57 373.51
  C 267.08 375.58 266.97 378.07 266.96 380.44
  A 0.57 0.57 0.0 0 0 267.53 381.01
  Z
  M 249.75 388.51
  L 237.79 388.48
  A 4.26 4.26 0.0 0 0 233.53 392.96
  L 233.59 394.18
  A 3.63 3.62 88.5 0 0 237.22 397.63
  L 249.70 397.62
  A 0.63 0.63 0.0 0 1 250.33 398.25
  L 250.32 410.00
  Q 250.32 414.43 254.75 414.28
  L 256.05 414.24
  A 3.55 3.55 0.0 0 0 259.49 410.69
  L 259.50 398.18
  Q 259.50 397.61 260.07 397.61
  L 272.02 397.63
  A 4.29 4.29 0.0 0 0 276.31 393.23
  L 276.28 391.97
  A 3.56 3.56 0.0 0 0 272.72 388.50
  L 259.99 388.49
  A 0.50 0.50 0.0 0 1 259.49 387.99
  L 259.49 375.27
  A 3.51 3.50 1.4 0 0 256.15 371.77
  L 254.88 371.71
  Q 250.29 371.50 250.31 376.09
  L 250.34 387.91
  A 0.60 0.59 90.0 0 1 249.75 388.51
  Z"
/>
<path fill="#f3f3f3" d="
  M 250.34 387.91
  L 250.31 376.09
  Q 250.29 371.50 254.88 371.71
  L 256.15 371.77
  A 3.51 3.50 1.4 0 1 259.49 375.27
  L 259.49 387.99
  A 0.50 0.50 0.0 0 0 259.99 388.49
  L 272.72 388.50
  A 3.56 3.56 0.0 0 1 276.28 391.97
  L 276.31 393.23
  A 4.29 4.29 0.0 0 1 272.02 397.63
  L 260.07 397.61
  Q 259.50 397.61 259.50 398.18
  L 259.49 410.69
  A 3.55 3.55 0.0 0 1 256.05 414.24
  L 254.75 414.28
  Q 250.32 414.43 250.32 410.00
  L 250.33 398.25
  A 0.63 0.63 0.0 0 0 249.70 397.62
  L 237.22 397.63
  A 3.63 3.62 88.5 0 1 233.59 394.18
  L 233.53 392.96
  A 4.26 4.26 0.0 0 1 237.79 388.48
  L 249.75 388.51
  A 0.60 0.59 -90.0 0 0 250.34 387.91
  Z"
/>
</svg>
